<?xml version="1.0" encoding="UTF-8" standalone="no"?>
<!-- Created with Inkscape (http://www.inkscape.org/) -->

<svg
   width="210mm"
   height="297mm"
   viewBox="0 0 210 297"
   version="1.1"
   id="svg5"
   inkscape:version="1.3 (0e150ed6c4, 2023-07-21)"
   sodipodi:docname="Only_Logo.svg"
   xml:space="preserve"
   xmlns:inkscape="http://www.inkscape.org/namespaces/inkscape"
   xmlns:sodipodi="http://sodipodi.sourceforge.net/DTD/sodipodi-0.dtd"
   xmlns="http://www.w3.org/2000/svg"
   xmlns:svg="http://www.w3.org/2000/svg"><sodipodi:namedview
     id="namedview7"
     pagecolor="#ffffff"
     bordercolor="#000000"
     borderopacity="0.25"
     inkscape:showpageshadow="2"
     inkscape:pageopacity="0.0"
     inkscape:pagecheckerboard="0"
     inkscape:deskcolor="#d1d1d1"
     inkscape:document-units="mm"
     showgrid="false"
     inkscape:zoom="1.714752"
     inkscape:cx="396.85039"
     inkscape:cy="770.3738"
     inkscape:window-width="1920"
     inkscape:window-height="1012"
     inkscape:window-x="0"
     inkscape:window-y="32"
     inkscape:window-maximized="1"
     inkscape:current-layer="g433" /><defs
     id="defs2" /><g
     inkscape:label="Layer 1"
     inkscape:groupmode="layer"
     id="layer1"><text
       xml:space="preserve"
       style="font-weight:300;font-size:19.7556px;font-family:'DM Sans 24pt';-inkscape-font-specification:'DM Sans 24pt Light';letter-spacing:4.53231px;white-space:pre;inline-size:80.3629;fill:#000000;stroke-width:0.264583"
       x="62.766235"
       y="74.688309"
       id="text119"><tspan
         x="62.766235"
         y="74.688309"
         id="tspan2"><tspan
           dx="0 13.446926 12.067509 13.553036 12.482296"
           style="font-weight:normal;font-family:Sylfaen;-inkscape-font-specification:Sylfaen"
           id="tspan1">CYBER</tspan></tspan></text><g
       id="g433"
       transform="matrix(1.6585817,0,0,1.6585817,-60.032386,-149.86579)"
       inkscape:export-filename="Full_giant_logo.png"
       inkscape:export-xdpi="96"
       inkscape:export-ydpi="96"
       inkscape:groupmode="layer"><path
         d="m -60.915011,182.88893 c -0.31102,0.10087 -1.21885,0.48474 -1.2777,0.53798 -0.0308,0.028 -0.0729,0.0532 -0.0897,0.0532 -0.0196,0 -0.042,0.0196 -0.0504,0.042 -0.014,0.0336 -0.58842,0.42871 -0.78455,0.54078 -0.0336,0.0196 -0.14571,0.1345 -0.24938,0.25779 -0.10087,0.12048 -0.22136,0.25217 -0.26619,0.2886 -0.0925,0.0785 -0.42309,0.60242 -0.52677,0.83219 -0.10927,0.25217 -0.17372,0.54638 -0.21855,1.01991 -0.0224,0.24657 -0.0448,0.45112 -0.0476,0.45672 -0.006,0.003 -0.1401,-0.014 -0.29981,-0.0364 -0.48194,-0.0673 -0.9891,-0.0869 -1.62514,-0.0644 -1.18804,0.0448 -1.93897,0.12609 -2.00901,0.21575 -0.0196,0.0252 -0.0364,0.11768 -0.0364,0.20735 0,0.20734 0.11208,0.44271 0.2858,0.59402 0.0673,0.0588 0.1457,0.12889 0.17652,0.1541 0.0813,0.0729 0.51837,0.35585 0.61644,0.40068 0.0476,0.0196 0.10647,0.056 0.13449,0.0813 0.0785,0.0729 1.03393,0.48194 1.57471,0.67528 0.16811,0.0588 0.33063,0.12328 0.35865,0.1429 0.0476,0.0308 0.0504,0.0925 0.0476,0.90784 0,0.52396 0.008,0.87981 0.0252,0.88822 0.014,0.0112 0.0476,0.0841 0.0729,0.16531 0.14009,0.4287 0.33623,0.93586 0.38106,0.9863 0.028,0.0308 0.10928,0.18773 0.17933,0.35024 0.0729,0.16252 0.15131,0.33064 0.17372,0.37266 0.07,0.1317 0.20454,0.71731 0.25778,1.12079 0.0392,0.29141 0.0392,0.78455 -0.003,0.87141 -0.0168,0.0392 -0.056,0.0785 -0.0897,0.0897 -0.0336,0.008 -0.0785,0.0336 -0.10088,0.0532 -0.0224,0.0196 -0.18212,0.0813 -0.35585,0.1401 -0.29981,0.0981 -0.31101,0.10368 -0.32783,0.19334 -0.0252,0.13169 -0.0252,0.50996 -0.003,0.93025 l 0.0196,0.36986 -0.12329,-0.014 c -0.12328,-0.014 -0.12889,-0.0112 -0.30541,0.15971 -0.0981,0.0953 -0.25498,0.22976 -0.34744,0.29981 -0.0925,0.0729 -0.31102,0.2746 -0.48755,0.45112 -0.17652,0.17652 -0.44831,0.4315 -0.60242,0.566 -0.49315,0.4231 -0.7117,0.72851 -1.1404,1.59712 -0.51276,1.03673 -0.54358,1.11238 -0.66967,1.58591 -0.0701,0.2746 -0.10647,0.48474 -0.15411,0.94707 -0.0252,0.23536 -0.0588,0.40348 -0.0953,0.47633 -0.0308,0.0645 -0.19614,0.41189 -0.37267,0.77334 l -0.31662,0.65567 0.003,0.49314 c 0.006,0.47634 0.0448,0.81257 0.0981,0.81257 0.0336,0 0.0336,0.21575 -0.003,0.23817 -0.042,0.0252 -0.0336,0.27459 0.0112,0.36706 0.0224,0.0448 0.0673,0.23817 0.10087,0.4315 0.0757,0.45672 0.15972,0.77895 0.22696,0.88262 0.13169,0.20735 0.17653,0.34745 0.25218,0.84059 0.0448,0.27739 0.10648,0.63044 0.13729,0.78455 0.0308,0.15411 0.0813,0.45672 0.11489,0.67247 0.0336,0.21575 0.0841,0.44832 0.11488,0.51557 0.0308,0.0701 0.0756,0.18493 0.0953,0.26058 0.0224,0.0728 0.0644,0.15691 0.0925,0.18213 0.028,0.028 0.0813,0.10647 0.11488,0.17652 0.0364,0.07 0.12049,0.18773 0.18773,0.26338 0.18213,0.20455 0.39788,0.52397 0.59402,0.87702 0.19894,0.36426 0.19614,0.33624 0.13729,1.20205 -0.0588,0.91344 0.0392,2.03703 0.23537,2.69829 0.10087,0.34184 0.11208,0.566 0.0364,0.78735 -0.10928,0.32223 -0.0589,0.52117 0.30261,1.15441 0.11488,0.20735 0.22976,0.44832 0.25498,0.54078 0.0224,0.0925 0.0504,0.19614 0.0616,0.22976 l 0.0168,0.0644 h 6.31563 c 5.02953,0 6.31844,-0.008 6.32965,-0.0364 0.006,-0.0168 0.0392,-0.28299 0.0728,-0.58841 0.0448,-0.40909 0.0504,-0.56319 0.028,-0.59121 -0.0168,-0.0196 -0.0392,-0.0953 -0.0476,-0.16532 -0.014,-0.0925 -0.0448,-0.15971 -0.11488,-0.23536 -0.10927,-0.12609 -0.13449,-0.19334 -0.10927,-0.33904 0.0504,-0.29141 0.0504,-0.48194 0.003,-0.58561 -0.0336,-0.0673 -0.0504,-0.17653 -0.0532,-0.31383 l -0.003,-0.21014 0.0981,-0.0617 c 0.0532,-0.0364 0.1485,-0.10367 0.21015,-0.1513 0.0616,-0.0476 0.1429,-0.10928 0.17932,-0.1373 l 0.07,-0.0504 -0.0476,-0.31943 c -0.0841,-0.55479 -0.056,-0.72291 0.1401,-0.84619 0.11488,-0.0728 0.32222,-0.2718 0.47073,-0.45392 0.16251,-0.19894 0.26058,-0.44271 0.40628,-1.00311 0.0364,-0.13729 0.0785,-0.16251 0.1429,-0.084 0.0729,0.084 0.74533,0.36145 1.05354,0.4315 0.1373,0.028 1.00311,-0.0532 1.38137,-0.1317 0.29421,-0.0616 0.64165,-0.20454 1.05915,-0.4371 0.84899,-0.47634 1.0059,-0.61083 1.22726,-1.07316 0.28019,-0.5828 0.39788,-1.07595 0.31942,-1.35895 -0.0224,-0.0813 -0.0308,-0.32783 -0.0308,-0.7201 0.006,-0.66687 -0.014,-0.75934 -0.16812,-0.8434 -0.18212,-0.0981 -0.45392,-0.35865 -0.61923,-0.59121 -0.0953,-0.13169 -0.22136,-0.2886 -0.2802,-0.34745 -0.0616,-0.0588 -0.17652,-0.21014 -0.25778,-0.33623 -0.0813,-0.12609 -0.22136,-0.31943 -0.31102,-0.4259 -0.20734,-0.25218 -0.91344,-0.93306 -1.18523,-1.1432 -0.11488,-0.0897 -0.22416,-0.17933 -0.24097,-0.20175 -0.0168,-0.0224 -0.10087,-0.0701 -0.18493,-0.10927 -0.19334,-0.0841 -0.283,-0.18213 -0.36426,-0.39508 -0.19053,-0.49315 -0.39507,-0.79015 -0.87141,-1.2777 -0.38667,-0.39227 -0.75653,-0.65846 -1.2861,-0.92185 -0.16251,-0.0785 -0.31102,-0.1541 -0.33343,-0.16531 -0.0224,-0.0112 -0.0504,-0.0392 -0.0589,-0.0616 -0.0756,-0.15691 -0.11768,-0.21295 -0.20454,-0.26339 -0.0532,-0.028 -0.12048,-0.0897 -0.1457,-0.13169 -0.0252,-0.0448 -0.1429,-0.15131 -0.26059,-0.23817 -0.11768,-0.0869 -0.31942,-0.26058 -0.4427,-0.38387 -0.12609,-0.12609 -0.40909,-0.40348 -0.63045,-0.62203 -0.22135,-0.21576 -0.47353,-0.47073 -0.55759,-0.566 -0.0841,-0.0953 -0.22976,-0.23537 -0.32223,-0.31102 -0.0953,-0.0784 -0.21015,-0.20735 -0.26618,-0.29701 -0.17653,-0.2914 -0.26619,-0.37266 -0.47634,-0.4343 -0.21295,-0.0645 -0.23256,-0.0813 -0.35024,-0.31943 -0.0981,-0.19894 -0.18213,-0.26338 -0.86861,-0.65005 -0.22976,-0.1317 -0.45112,-0.26899 -0.49035,-0.30262 -0.0392,-0.0364 -0.1429,-0.10647 -0.23256,-0.15411 -0.0869,-0.0504 -0.17372,-0.11488 -0.18773,-0.1429 -0.0757,-0.1429 0,-0.53797 0.13449,-0.68928 0.0897,-0.10367 0.16812,-0.13169 0.60243,-0.20735 0.36145,-0.0616 0.65846,-0.17092 0.76493,-0.27459 0.0729,-0.0729 0.10087,-0.15971 0.18213,-0.54358 0.0673,-0.31662 0.10647,-0.40628 0.25778,-0.57721 0.12889,-0.1429 0.1429,-0.17932 0.17652,-0.45391 0.008,-0.0841 0.0476,-0.24658 0.0841,-0.35866 0.0756,-0.22695 0.0841,-0.38667 0.0336,-0.62483 -0.0392,-0.19054 -0.0308,-0.20455 0.19053,-0.35025 0.2858,-0.19053 0.40348,-0.38107 0.40348,-0.65566 0,-0.1457 -0.0112,-0.17933 -0.0981,-0.2858 -0.20174,-0.25218 -0.2858,-0.52677 -0.31101,-1.00871 -0.0224,-0.44271 -0.0336,-0.4259 0.27739,-0.38667 0.44832,0.056 1.53828,0.0925 1.86891,0.0588 0.4231,-0.0392 1.19084,-0.18773 1.54949,-0.30261 l 0.1317,-0.042 v -0.19334 c 0,-0.15691 -0.014,-0.22696 -0.0757,-0.35305 -0.042,-0.084 -0.10927,-0.17652 -0.1485,-0.19893 -0.0392,-0.0252 -0.11769,-0.0869 -0.17372,-0.1373 -0.19054,-0.16532 -0.49315,-0.2886 -1.71481,-0.69489 -0.4343,-0.1457 -0.80416,-0.283 -0.83218,-0.31382 -0.0504,-0.0476 -0.0504,-0.0756 -0.028,-0.38667 0.0168,-0.18493 0.042,-0.59402 0.0588,-0.91064 0.0364,-0.64726 0.0168,-0.88823 -0.0953,-1.24688 -0.0673,-0.21295 -0.0869,-0.24096 -0.34464,-0.51276 -0.15131,-0.15691 -0.30542,-0.32783 -0.34184,-0.37826 -0.0392,-0.0504 -0.11208,-0.12329 -0.16251,-0.16252 -0.0504,-0.0364 -0.14571,-0.1485 -0.21015,-0.24937 -0.0645,-0.10087 -0.16812,-0.24097 -0.23257,-0.31102 -0.0616,-0.0701 -0.19893,-0.2858 -0.30541,-0.47633 -0.39228,-0.7033 -0.44832,-0.79857 -0.52677,-0.89944 -0.19053,-0.24377 -0.59402,-0.4231 -1.2777,-0.566 -0.31662,-0.0672 -0.39788,-0.0729 -1.02272,-0.0701 -0.5716,0 -0.70329,0.008 -0.83218,0.0504 z"
         id="path285"
         style="fill:#000000;stroke:none;stroke-width:0.00280197" /><text
         xml:space="preserve"
         style="font-style:normal;font-variant:normal;font-weight:normal;font-stretch:normal;font-size:34.8709px;font-family:Sylfaen;-inkscape-font-specification:Sylfaen;letter-spacing:5.79105px;fill:#ffffff;stroke-width:0.46702"
         x="-46.126614"
         y="218.97356"
         id="text281-2"><tspan
           sodipodi:role="line"
           id="tspan279-4"
           style="font-style:normal;font-variant:normal;font-weight:normal;font-stretch:normal;font-family:Georgia;-inkscape-font-specification:Georgia;fill:#ffffff;stroke-width:0.46702"
           x="-46.126614"
           y="218.97356">CR</tspan></text><ellipse
         style="fill:#f00000;stroke-width:0.159524"
         id="path1"
         cx="-45.622166"
         cy="186.41508"
         rx="15.249914"
         ry="14.507619" /><ellipse
         style="fill:#f00000;stroke-width:0.159524"
         id="path2"
         cx="78.315445"
         cy="-210.51854"
         rx="24.925303"
         ry="25.607801"
         transform="scale(1,-1)" /><ellipse
         style="fill:#f00000;stroke-width:0.159524"
         id="path3"
         cx="-54.993187"
         cy="248.31438"
         rx="0.33955598"
         ry="0.72748166" /><rect
         style="fill:#f00000;stroke-width:0.159524"
         id="rect8"
         width="61.710541"
         height="16.053465"
         x="77.836258"
         y="-200.99425"
         transform="scale(1,-1)" /><rect
         style="fill:#f00000;stroke-width:0.159524"
         id="rect8-3"
         width="61.710541"
         height="16.053465"
         x="76.818306"
         y="-236.09297"
         transform="scale(1,-1)" /></g></g></svg>
