<?xml version="1.0" encoding="UTF-8" standalone="no"?>
<!-- Created with Inkscape (http://www.inkscape.org/) -->

<svg
   width="210mm"
   height="297mm"
   viewBox="0 0 210 297"
   version="1.1"
   id="svg5"
   inkscape:version="1.2.2 (732a01da63, 2022-12-09)"
   sodipodi:docname="Only_Logo.svg"
   xml:space="preserve"
   xmlns:inkscape="http://www.inkscape.org/namespaces/inkscape"
   xmlns:sodipodi="http://sodipodi.sourceforge.net/DTD/sodipodi-0.dtd"
   xmlns="http://www.w3.org/2000/svg"
   xmlns:svg="http://www.w3.org/2000/svg"><sodipodi:namedview
     id="namedview7"
     pagecolor="#ffffff"
     bordercolor="#000000"
     borderopacity="0.25"
     inkscape:showpageshadow="2"
     inkscape:pageopacity="0.0"
     inkscape:pagecheckerboard="0"
     inkscape:deskcolor="#d1d1d1"
     inkscape:document-units="mm"
     showgrid="false"
     inkscape:zoom="0.37727622"
     inkscape:cx="310.11761"
     inkscape:cy="516.86268"
     inkscape:window-width="1920"
     inkscape:window-height="1027"
     inkscape:window-x="-8"
     inkscape:window-y="22"
     inkscape:window-maximized="1"
     inkscape:current-layer="g433" /><defs
     id="defs2" /><g
     inkscape:label="Layer 1"
     inkscape:groupmode="layer"
     id="layer1"><text
       xml:space="preserve"
       style="font-weight:300;font-size:19.7556px;font-family:'DM Sans 24pt';-inkscape-font-specification:'DM Sans 24pt Light';letter-spacing:4.53231px;white-space:pre;inline-size:80.3629;fill:#000000;stroke-width:0.264583"
       x="62.766235"
       y="74.688309"
       id="text119"><tspan
         x="62.766235"
         y="74.688309"
         id="tspan191"><tspan
           dx="0 12.781332 13.331171 11.893875 11.536957"
           style="font-weight:normal;font-family:Sylfaen;-inkscape-font-specification:Sylfaen"
           id="tspan189">CYBER</tspan></tspan></text><g
       id="g433"
       transform="matrix(1.6585817,0,0,1.6585817,-60.032386,-149.86579)"
       inkscape:export-filename="Full_giant_logo.png"
       inkscape:export-xdpi="96"
       inkscape:export-ydpi="96"
       inkscape:groupmode="layer"><g
         id="g178"
         inkscape:export-filename="Logo.png"
         inkscape:export-xdpi="96"
         inkscape:export-ydpi="96"><path
           d="m 90.622449,95.169554 c -1.19111,0.38631 -4.66789,1.85643 -4.89324,2.06031 -0.11803,0.10731 -0.279,0.20389 -0.34338,0.20389 -0.0751,0 -0.16096,0.0751 -0.19315,0.16096 -0.0537,0.12877 -2.25347,1.641813 -3.00462,2.071043 -0.12877,0.0751 -0.55801,0.515083 -0.95504,0.987233 -0.38631,0.46143 -0.84774,0.96577 -1.01943,1.10527 -0.35411,0.30047 -1.62035,2.30712 -2.01739,3.18705 -0.4185,0.96577 -0.66531,2.0925 -0.837,3.906 -0.0858,0.94431 -0.17169,1.72766 -0.18242,1.74912 -0.0215,0.0107 -0.53654,-0.0537 -1.1482,-0.1395 -1.84569,-0.25754 -3.78796,-0.33266 -6.22385,-0.24681 -4.54985,0.17169 -7.4257,0.48289 -7.69397,0.82627 -0.0751,0.0966 -0.1395,0.45069 -0.1395,0.79408 0,0.79408 0.42923,1.69546 1.09454,2.27493 0.25754,0.22534 0.558,0.49361 0.67604,0.59019 0.31119,0.279 1.98519,1.36281 2.36077,1.5345 0.18242,0.0751 0.40777,0.21462 0.51508,0.3112 0.30046,0.279 3.95966,1.84569 6.0307,2.58611 0.64384,0.22535 1.26623,0.47216 1.37354,0.54727 0.18242,0.11804 0.19315,0.35412 0.18242,3.47678 0,2.00666 0.0322,3.36946 0.0966,3.40166 0.0537,0.0429 0.18242,0.32192 0.279,0.63311 0.53654,1.64181 1.28769,3.58408 1.45939,3.77724 0.1073,0.11804 0.4185,0.71896 0.68677,1.34135 0.279,0.62238 0.57946,1.26623 0.6653,1.42719 0.26827,0.50435 0.78335,2.74708 0.98724,4.29232 0.15023,1.116 0.15023,3.00462 -0.0107,3.33727 -0.0644,0.15023 -0.21462,0.30046 -0.34339,0.34338 -0.12877,0.0322 -0.30046,0.12877 -0.38631,0.20389 -0.0858,0.0751 -0.6975,0.31119 -1.36281,0.53654 -1.14819,0.37558 -1.19111,0.39704 -1.2555,0.74042 -0.0966,0.50435 -0.0966,1.95301 -0.0107,3.56263 l 0.0751,1.41646 -0.47215,-0.0537 c -0.47215,-0.0537 -0.49362,-0.0429 -1.16966,0.61166 -0.37557,0.36484 -0.9765,0.87992 -1.33061,1.14819 -0.35412,0.279 -1.19112,1.05162 -1.86716,1.72766 -0.67604,0.67604 -1.71692,1.65254 -2.30712,2.16762 -1.88862,1.62035 -2.72562,2.79 -4.36743,6.11655 -1.96373,3.97038 -2.08177,4.26011 -2.56465,6.07362 -0.26827,1.05162 -0.40777,1.85642 -0.5902,3.627 -0.0966,0.90139 -0.22534,1.54524 -0.36484,1.82424 -0.11804,0.24681 -0.75116,1.57742 -1.4272,2.96169 l -1.21258,2.51101 0.0107,1.88861 c 0.0215,1.82424 0.1717,3.11193 0.37558,3.11193 0.12877,0 0.12877,0.82627 -0.0107,0.91212 -0.16096,0.0966 -0.12877,1.05161 0.0429,1.40573 0.0859,0.17169 0.25754,0.91212 0.38631,1.65254 0.28973,1.74912 0.61166,2.98316 0.86919,3.3802 0.50435,0.79408 0.67604,1.33062 0.96578,3.21923 0.17169,1.06235 0.40777,2.41443 0.5258,3.00462 0.11804,0.5902 0.3112,1.74912 0.43997,2.57539 0.12877,0.82627 0.32192,1.71693 0.43996,1.97447 0.11804,0.26827 0.28973,0.70823 0.36485,0.99796 0.0858,0.279 0.2468,0.60092 0.35411,0.6975 0.10731,0.10731 0.31119,0.40777 0.43996,0.67604 0.1395,0.26827 0.46143,0.71896 0.71897,1.00869 0.6975,0.78335 1.52377,2.00666 2.27492,3.35874 0.76189,1.395 0.75116,1.28769 0.52581,4.60351 -0.22535,3.49823 0.15023,7.80128 0.90139,10.33374 0.3863,1.30916 0.42923,2.16762 0.1395,3.01535 -0.4185,1.23404 -0.22535,1.99593 1.15892,4.42109 0.43996,0.79407 0.87993,1.71692 0.9765,2.07104 0.0858,0.35411 0.19316,0.75115 0.23608,0.87992 l 0.0644,0.24681 h 24.18719 c 19.261761,0 24.197921,-0.0322 24.240851,-0.1395 0.0215,-0.0644 0.15023,-1.08381 0.279,-2.25347 0.17169,-1.56669 0.19315,-2.15688 0.10731,-2.26419 -0.0644,-0.0751 -0.15024,-0.36485 -0.18243,-0.63312 -0.0537,-0.35412 -0.17169,-0.61165 -0.43996,-0.90138 -0.4185,-0.48289 -0.51508,-0.74043 -0.4185,-1.29843 0.19315,-1.116 0.19315,-1.84569 0.0107,-2.24273 -0.12877,-0.25754 -0.19316,-0.67604 -0.20389,-1.20185 l -0.0107,-0.80481 0.37558,-0.23608 c 0.20389,-0.1395 0.56874,-0.39704 0.80481,-0.57946 0.23608,-0.18242 0.54727,-0.4185 0.68677,-0.52581 l 0.26827,-0.19315 -0.18242,-1.22331 c -0.32193,-2.1247 -0.21462,-2.76854 0.53654,-3.2407 0.43996,-0.279 1.23404,-1.04089 1.80277,-1.73839 0.62238,-0.76188 0.99796,-1.69546 1.55596,-3.84162 0.1395,-0.52581 0.30047,-0.62238 0.54727,-0.32192 0.279,0.32192 2.85439,1.38427 4.03478,1.65254 0.52581,0.10731 3.84162,-0.20388 5.29028,-0.50435 1.12673,-0.23607 2.45735,-0.78334 4.05623,-1.674 3.25143,-1.82423 3.85235,-2.33931 4.70008,-4.10989 1.07308,-2.232 1.52378,-4.12062 1.22331,-5.20443 -0.0858,-0.31119 -0.11804,-1.2555 -0.11804,-2.75781 0.0215,-2.55393 -0.0537,-2.90804 -0.64384,-3.22997 -0.6975,-0.37557 -1.73839,-1.37354 -2.3715,-2.26419 -0.36485,-0.50435 -0.84774,-1.10527 -1.07308,-1.33062 -0.23608,-0.22535 -0.67604,-0.80481 -0.98724,-1.28769 -0.31119,-0.48289 -0.84773,-1.22331 -1.19111,-1.63108 -0.79408,-0.96577 -3.49824,-3.57335 -4.53912,-4.37816 -0.43997,-0.34339 -0.85847,-0.68677 -0.92285,-0.77262 -0.0644,-0.0858 -0.38631,-0.26827 -0.70823,-0.4185 -0.74043,-0.32192 -1.08381,-0.6975 -1.39501,-1.51304 -0.72969,-1.88862 -1.51304,-3.02608 -3.33727,-4.89324 -1.48085,-1.50231 -2.89731,-2.52173 -4.92543,-3.53043 -0.62238,-0.30046 -1.19112,-0.59019 -1.27696,-0.63311 -0.0858,-0.0429 -0.19316,-0.15023 -0.22535,-0.23608 -0.28973,-0.60092 -0.45069,-0.81554 -0.78335,-1.00869 -0.20388,-0.10731 -0.46142,-0.34339 -0.558,-0.50435 -0.0966,-0.17169 -0.54727,-0.57946 -0.99796,-0.91212 -0.45069,-0.33265 -1.22331,-0.99796 -1.69546,-1.47011 -0.48289,-0.48289 -1.5667,-1.54524 -2.41443,-2.38224 -0.84773,-0.82627 -1.8135,-1.80277 -2.13543,-2.16762 -0.32192,-0.36484 -0.87992,-0.90138 -1.23404,-1.19112 -0.36484,-0.30045 -0.80481,-0.79407 -1.01942,-1.13746 -0.67604,-1.116 -1.01943,-1.42719 -1.82424,-1.66327 -0.81554,-0.24681 -0.89065,-0.31119 -1.34134,-1.22331 -0.37558,-0.76188 -0.69751,-1.00869 -3.32655,-2.48954 -0.87992,-0.50435 -1.72765,-1.03015 -1.877883,-1.15893 -0.15023,-0.1395 -0.547268,-0.40776 -0.890658,-0.59019 -0.33265,-0.19315 -0.66531,-0.43996 -0.71896,-0.54727 -0.28973,-0.54727 0,-2.06031 0.51507,-2.63977 0.34339,-0.39704 0.643848,-0.50435 2.307131,-0.79408 1.38427,-0.23608 2.52173,-0.65458 2.9295,-1.05162 0.279,-0.27899 0.38631,-0.61165 0.6975,-2.08177 0.25754,-1.21258 0.40777,-1.55596 0.98723,-2.21054 0.49362,-0.54727 0.54727,-0.68677 0.67604,-1.73839 0.0322,-0.32192 0.18242,-0.94431 0.32192,-1.37354 0.28973,-0.86919 0.32193,-1.48084 0.12877,-2.39296 -0.15023,-0.72969 -0.11804,-0.78335 0.7297,-1.34135 1.09454,-0.72969 1.54523,-1.45939 1.54523,-2.51101 0,-0.55799 -0.0429,-0.68676 -0.37558,-1.09453 -0.77261,-0.96577 -1.09454,-2.01739 -1.19111,-3.86309 -0.0858,-1.69546 -0.12877,-1.63108 1.06234,-1.48084 1.71693,0.21461 5.8912,0.35411 7.15744,0.22534 1.62034,-0.15023 4.56058,-0.71896 5.93412,-1.15892 l 0.50435,-0.16097 v -0.74042 c 0,-0.60092 -0.0537,-0.86919 -0.28973,-1.35208 -0.16096,-0.32192 -0.4185,-0.67604 -0.56874,-0.76188 -0.15023,-0.0966 -0.45069,-0.33266 -0.6653,-0.52581 -0.7297,-0.63312 -1.88862,-1.10527 -6.56724,-2.66124 -1.66327,-0.558 -3.07974,-1.08381 -3.18705,-1.20184 -0.19315,-0.18243 -0.19315,-0.28974 -0.10731,-1.48085 0.0644,-0.70823 0.16097,-2.27493 0.22535,-3.48751 0.1395,-2.47881 0.0644,-3.40166 -0.36485,-4.7752 -0.25753,-0.81554 -0.33265,-0.92284 -1.31988,-1.96373 -0.57946,-0.60092 -1.16966,-1.2555 -1.30916,-1.44866 -0.15023,-0.19315 -0.42923,-0.47215 -0.62238,-0.62238 -0.19316,-0.1395 -0.558,-0.56873 -0.80481,-0.95504 -0.24681,-0.38631 -0.64385,-0.92285 -0.89066,-1.19112 -0.23607,-0.26827 -0.76188,-1.09454 -1.16965,-1.82423 -1.50231,-2.693436 -1.71693,-3.058286 -2.01739,-3.444586 -0.72969,-0.93358 -2.27493,-1.62035 -4.893241,-2.16762 -1.21258,-0.25754 -1.52377,-0.279 -3.91674,-0.26827 -2.18908,0 -2.69342,0.0322 -3.18704,0.19315 z"
           id="path285"
           style="fill:#000000;stroke:none;stroke-width:0.0107308" /><text
           xml:space="preserve"
           style="font-style:normal;font-variant:normal;font-weight:normal;font-stretch:normal;font-size:34.8709px;font-family:Sylfaen;-inkscape-font-specification:Sylfaen;letter-spacing:5.79105px;fill:#ffffff;stroke-width:0.46702"
           x="65.890198"
           y="197.75763"
           id="text281-2"><tspan
             sodipodi:role="line"
             id="tspan279-4"
             style="font-style:normal;font-variant:normal;font-weight:normal;font-stretch:normal;font-family:Georgia;-inkscape-font-specification:Georgia;fill:#ffffff;stroke-width:0.46702"
             x="65.890198"
             y="197.75763">CR</tspan></text></g></g></g></svg>
